ffmpeg started on 2025-06-06 at 16:21:41
Report written to "D:\Convert\FFMetrics\reports\ssim_report-6.txt"
Log level: 32
Command line:
ffmpeg -hide_banner -nostdin -i "G:\\\xc0\xed\xe8\xec\xe5\\\xce\xed\xe3\xee\xe8\xed\xe3\xe8\\!_36_\xce\xf1\xe5\xed\xfc_2024\\DreamCast\\\xcf\xe5\xf0\xe5\xf0\xee\xe6\xe4\xe5\xed\xe8\xe5 \xe2 \xe0\xf0\xe8\xf1\xf2\xee\xea\xf0\xe0\xf2\xe0 \xf1\xee \xf1\xef\xee\xf1\xee\xe1\xed\xee\xf1\xf2\xfc\xfe \xe0\xed\xe0\xeb\xe8\xe7\xe0\\\xd2\xc2-2\\DC_Tensei_Kizoku_Kantei_Skill_de_Nariagaru_S2_06_Telegram_HEVC.mkv" -i "G:\\\xc0\xed\xe8\xec\xe5\\\xce\xed\xe3\xee\xe8\xed\xe3\xe8\\!_36_\xce\xf1\xe5\xed\xfc_2024\\DreamCast\\\xcf\xe5\xf0\xe5\xf0\xee\xe6\xe4\xe5\xed\xe8\xe5 \xe2 \xe0\xf0\xe8\xf1\xf2\xee\xea\xf0\xe0\xf2\xe0 \xf1\xee \xf1\xef\xee\xf1\xee\xe1\xed\xee\xf1\xf2\xfc\xfe \xe0\xed\xe0\xeb\xe8\xe7\xe0\\\xd2\xc2-2\\DC_Tensei_Kizoku_Kantei_Skill_de_Nariagaru_S2_06_Telegram.mp4" -lavfi "[0:v]settb=AVTB,setpts=PTS-STARTPTS,format=pix_fmts=yuv420p10,fps=24000/1001,scale=1920:1080:flags=bicubic[main];[1:v]settb=AVTB,setpts=PTS-STARTPTS,format=pix_fmts=yuv420p,fps=24000/1001,scale=1920:1080:flags=bicubic[ref];[main][ref]ssim=eof_action=endall:stats_file='D\\:/Convert/FFMetrics/logs/ssim_logfile-6.txt'" -f null -
Input #0, matroska,webm, from 'G:\Аниме\Онгоинги\!_36_Осень_2024\DreamCast\Перерождение в аристократа со способностью анализа\ТВ-2\DC_Tensei_Kizoku_Kantei_Skill_de_Nariagaru_S2_06_Telegram_HEVC.mkv':
  Metadata:
    COMPATIBLE_BRANDS: isomiso2avc1mp41
    MAJOR_BRAND     : isom
    MINOR_VERSION   : 512
    ENCODER         : Lavf61.7.100
  Duration: 00:23:49.46, start: -0.021000, bitrate: 1166 kb/s
  Stream #0:0: Video: hevc (Main 10), yuv420p10le(tv, bt709, progressive), 1920x1080 [SAR 1:1 DAR 16:9], 23.98 fps, 23.98 tbr, 1k tbn (default)
      Metadata:
        HANDLER_NAME    : VideoHandler
        VENDOR_ID       : [0][0][0][0]
        ENCODER         : Lavc61.19.100 libx265
        BPS             : 970991
        DURATION        : 00:23:46.508708333
        NUMBER_OF_FRAMES: 34202
        NUMBER_OF_BYTES : 173140923
        _STATISTICS_WRITING_APP: mkvpropedit v66.0.0 ('Josie') 64-bit
        _STATISTICS_WRITING_DATE_UTC: 2025-06-02 09:57:41
        _STATISTICS_TAGS: BPS DURATION NUMBER_OF_FRAMES NUMBER_OF_BYTES
  Stream #0:1: Audio: aac (LC), 48000 Hz, stereo, fltp (default)
      Metadata:
        HANDLER_NAME    : SoundHandler
        VENDOR_ID       : [0][0][0][0]
        ENCODER         : Lavc61.19.100 aac
        BPS             : 193790
        DURATION        : 00:23:49.461000000
        NUMBER_OF_FRAMES: 67007
        NUMBER_OF_BYTES : 34626993
        _STATISTICS_WRITING_APP: mkvpropedit v66.0.0 ('Josie') 64-bit
        _STATISTICS_WRITING_DATE_UTC: 2025-06-02 09:57:41
        _STATISTICS_TAGS: BPS DURATION NUMBER_OF_FRAMES NUMBER_OF_BYTES
Input #1, mov,mp4,m4a,3gp,3g2,mj2, from 'G:\Аниме\Онгоинги\!_36_Осень_2024\DreamCast\Перерождение в аристократа со способностью анализа\ТВ-2\DC_Tensei_Kizoku_Kantei_Skill_de_Nariagaru_S2_06_Telegram.mp4':
  Metadata:
    major_brand     : isom
    minor_version   : 512
    compatible_brands: isomiso2avc1mp41
    encoder         : Lavf61.1.100
  Duration: 00:23:49.41, start: 0.000000, bitrate: 3605 kb/s
  Stream #1:0[0x1](und): Video: h264 (High) (avc1 / 0x31637661), yuv420p(tv, bt709, progressive), 1920x1080 [SAR 1:1 DAR 16:9], 3464 kb/s, 23.98 fps, 23.98 tbr, 24k tbn (default)
      Metadata:
        handler_name    : VideoHandler
        vendor_id       : [0][0][0][0]
        encoder         : Lavc61.3.100 h264_qsv
  Stream #1:1[0x2](und): Audio: aac (HE-AACv2) (mp4a / 0x6134706D), 48000 Hz, stereo, fltp, 144 kb/s (default)
      Metadata:
        handler_name    : SoundHandler
        vendor_id       : [0][0][0][0]
Stream mapping:
  Stream #0:0 (hevc) -> settb:default
  Stream #1:0 (h264) -> settb:default
  ssim:default -> Stream #0:0 (wrapped_avframe)
  Stream #0:1 -> #0:1 (aac (native) -> pcm_s16le (native))
Output #0, null, to 'pipe:':
  Metadata:
    COMPATIBLE_BRANDS: isomiso2avc1mp41
    MAJOR_BRAND     : isom
    MINOR_VERSION   : 512
    encoder         : Lavf61.7.100
  Stream #0:0: Video: wrapped_avframe, yuv420p10le(tv, bt709, progressive), 1920x1080 [SAR 1:1 DAR 16:9], q=2-31, 200 kb/s, 23.98 fps, 23.98 tbn
      Metadata:
        encoder         : Lavc61.19.100 wrapped_avframe
  Stream #0:1: Audio: pcm_s16le, 48000 Hz, stereo, s16, 1536 kb/s (default)
      Metadata:
        HANDLER_NAME    : SoundHandler
        VENDOR_ID       : [0][0][0][0]
        _STATISTICS_TAGS: BPS DURATION NUMBER_OF_FRAMES NUMBER_OF_BYTES
        BPS             : 193790
        DURATION        : 00:23:49.461000000
        NUMBER_OF_FRAMES: 67007
        NUMBER_OF_BYTES : 34626993
        _STATISTICS_WRITING_APP: mkvpropedit v66.0.0 ('Josie') 64-bit
        _STATISTICS_WRITING_DATE_UTC: 2025-06-02 09:57:41
        encoder         : Lavc61.19.100 pcm_s16le
frame=  158 fps=0.0 q=-0.0 size=N/A time=00:00:06.58 bitrate=N/A speed=12.9x    frame=  400 fps=387 q=-0.0 size=N/A time=00:00:16.68 bitrate=N/A speed=16.1x    frame=  659 fps=428 q=-0.0 size=N/A time=00:00:27.48 bitrate=N/A speed=17.8x    frame=  916 fps=443 q=-0.0 size=N/A time=00:00:38.20 bitrate=N/A speed=18.5x    frame= 1173 fps=453 q=-0.0 size=N/A time=00:00:48.92 bitrate=N/A speed=18.9x    frame= 1390 fps=448 q=-0.0 size=N/A time=00:00:57.97 bitrate=N/A speed=18.7x    frame= 1671 fps=461 q=-0.0 size=N/A time=00:01:09.69 bitrate=N/A speed=19.2x    frame= 1905 fps=460 q=-0.0 size=N/A time=00:01:19.45 bitrate=N/A speed=19.2x    frame= 2152 fps=461 q=-0.0 size=N/A time=00:01:29.79 bitrate=N/A speed=19.2x    frame= 2423 fps=467 q=-0.0 size=N/A time=00:01:41.05 bitrate=N/A speed=19.5x    frame= 2681 fps=471 q=-0.0 size=N/A time=00:01:51.82 bitrate=N/A speed=19.6x    frame= 2886 fps=464 q=-0.0 size=N/A time=00:02:00.37 bitrate=N/A speed=19.3x    frame= 3064 fps=455 q=-0.0 size=N/A time=00:02:07.79 bitrate=N/A speed=  19x    frame= 3248 fps=448 q=-0.0 size=N/A time=00:02:15.46 bitrate=N/A speed=18.7x    frame= 3462 fps=446 q=-0.0 size=N/A time=00:02:24.39 bitrate=N/A speed=18.6x    frame= 3588 fps=434 q=-0.0 size=N/A time=00:02:29.64 bitrate=N/A speed=18.1x    frame= 3762 fps=428 q=-0.0 size=N/A time=00:02:36.90 bitrate=N/A speed=17.8x    frame= 3936 fps=422 q=-0.0 size=N/A time=00:02:44.16 bitrate=N/A speed=17.6x    frame= 4119 fps=419 q=-0.0 size=N/A time=00:02:51.79 bitrate=N/A speed=17.5x    frame= 4316 fps=417 q=-0.0 size=N/A time=00:03:00.01 bitrate=N/A speed=17.4x    frame= 4483 fps=413 q=-0.0 size=N/A time=00:03:06.97 bitrate=N/A speed=17.2x    frame= 4663 fps=410 q=-0.0 size=N/A time=00:03:14.48 bitrate=N/A speed=17.1x    frame= 4857 fps=408 q=-0.0 size=N/A time=00:03:22.57 bitrate=N/A speed=  17x    frame= 5103 fps=411 q=-0.0 size=N/A time=00:03:32.83 bitrate=N/A speed=17.2x    frame= 5328 fps=412 q=-0.0 size=N/A time=00:03:42.22 bitrate=N/A speed=17.2x    frame= 5540 fps=413 q=-0.0 size=N/A time=00:03:51.06 bitrate=N/A speed=17.2x    frame= 5771 fps=414 q=-0.0 size=N/A time=00:04:00.69 bitrate=N/A speed=17.3x    frame= 5981 fps=413 q=-0.0 size=N/A time=00:04:09.45 bitrate=N/A speed=17.2x    frame= 6197 fps=414 q=-0.0 size=N/A time=00:04:18.46 bitrate=N/A speed=17.3x    frame= 6417 fps=414 q=-0.0 size=N/A time=00:04:27.64 bitrate=N/A speed=17.3x    frame= 6613 fps=413 q=-0.0 size=N/A time=00:04:35.81 bitrate=N/A speed=17.2x    frame= 6851 fps=414 q=-0.0 size=N/A time=00:04:45.74 bitrate=N/A speed=17.3x    frame= 7064 fps=414 q=-0.0 size=N/A time=00:04:54.62 bitrate=N/A speed=17.3x    frame= 7309 fps=416 q=-0.0 size=N/A time=00:05:04.84 bitrate=N/A speed=17.4x    frame= 7568 fps=419 q=-0.0 size=N/A time=00:05:15.64 bitrate=N/A speed=17.5x    frame= 7824 fps=421 q=-0.0 size=N/A time=00:05:26.32 bitrate=N/A speed=17.5x    frame= 8077 fps=423 q=-0.0 size=N/A time=00:05:36.87 bitrate=N/A speed=17.6x    frame= 8322 fps=424 q=-0.0 size=N/A time=00:05:47.09 bitrate=N/A speed=17.7x    frame= 8551 fps=425 q=-0.0 size=N/A time=00:05:56.64 bitrate=N/A speed=17.7x    frame= 8789 fps=426 q=-0.0 size=N/A time=00:06:06.57 bitrate=N/A speed=17.7x    frame= 9035 fps=427 q=-0.0 size=N/A time=00:06:16.83 bitrate=N/A speed=17.8x    frame= 9286 fps=428 q=-0.0 size=N/A time=00:06:27.30 bitrate=N/A speed=17.9x    frame= 9539 fps=430 q=-0.0 size=N/A time=00:06:37.85 bitrate=N/A speed=17.9x    frame= 9814 fps=432 q=-0.0 size=N/A time=00:06:49.32 bitrate=N/A speed=  18x    frame=10043 fps=432 q=-0.0 size=N/A time=00:06:58.87 bitrate=N/A speed=  18x    frame=10285 fps=433 q=-0.0 size=N/A time=00:07:08.97 bitrate=N/A speed=18.1x    frame=10537 fps=434 q=-0.0 size=N/A time=00:07:19.48 bitrate=N/A speed=18.1x    frame=10811 fps=436 q=-0.0 size=N/A time=00:07:30.90 bitrate=N/A speed=18.2x    frame=11087 fps=438 q=-0.0 size=N/A time=00:07:42.42 bitrate=N/A speed=18.3x    frame=11314 fps=438 q=-0.0 size=N/A time=00:07:51.88 bitrate=N/A speed=18.3x    frame=11552 fps=439 q=-0.0 size=N/A time=00:08:01.81 bitrate=N/A speed=18.3x    frame=11781 fps=439 q=-0.0 size=N/A time=00:08:11.36 bitrate=N/A speed=18.3x    frame=12054 fps=441 q=-0.0 size=N/A time=00:08:22.75 bitrate=N/A speed=18.4x    frame=12325 fps=442 q=-0.0 size=N/A time=00:08:34.05 bitrate=N/A speed=18.4x    frame=12557 fps=442 q=-0.0 size=N/A time=00:08:43.73 bitrate=N/A speed=18.4x    frame=12837 fps=444 q=-0.0 size=N/A time=00:08:55.40 bitrate=N/A speed=18.5x    frame=13087 fps=445 q=-0.0 size=N/A time=00:09:05.83 bitrate=N/A speed=18.6x    frame=13365 fps=446 q=-0.0 size=N/A time=00:09:17.43 bitrate=N/A speed=18.6x    frame=13635 fps=448 q=-0.0 size=N/A time=00:09:28.69 bitrate=N/A speed=18.7x    frame=13866 fps=448 q=-0.0 size=N/A time=00:09:38.32 bitrate=N/A speed=18.7x    frame=14103 fps=448 q=-0.0 size=N/A time=00:09:48.21 bitrate=N/A speed=18.7x    frame=14306 fps=447 q=-0.0 size=N/A time=00:09:56.67 bitrate=N/A speed=18.6x    frame=14569 fps=448 q=-0.0 size=N/A time=00:10:07.64 bitrate=N/A speed=18.7x    frame=14831 fps=449 q=-0.0 size=N/A time=00:10:18.57 bitrate=N/A speed=18.7x    frame=15086 fps=450 q=-0.0 size=N/A time=00:10:29.21 bitrate=N/A speed=18.8x    frame=15252 fps=448 q=-0.0 size=N/A time=00:10:36.13 bitrate=N/A speed=18.7x    frame=15443 fps=447 q=-0.0 size=N/A time=00:10:44.10 bitrate=N/A speed=18.6x    frame=15687 fps=447 q=-0.0 size=N/A time=00:10:54.27 bitrate=N/A speed=18.6x    frame=15970 fps=448 q=-0.0 size=N/A time=00:11:06.08 bitrate=N/A speed=18.7x    frame=16202 fps=449 q=-0.0 size=N/A time=00:11:15.75 bitrate=N/A speed=18.7x    frame=16426 fps=448 q=-0.0 size=N/A time=00:11:25.10 bitrate=N/A speed=18.7x    frame=16674 fps=449 q=-0.0 size=N/A time=00:11:35.44 bitrate=N/A speed=18.7x    frame=16902 fps=449 q=-0.0 size=N/A time=00:11:44.95 bitrate=N/A speed=18.7x    frame=17126 fps=448 q=-0.0 size=N/A time=00:11:54.29 bitrate=N/A speed=18.7x    frame=17349 fps=448 q=-0.0 size=N/A time=00:12:03.59 bitrate=N/A speed=18.7x    frame=17552 fps=448 q=-0.0 size=N/A time=00:12:12.06 bitrate=N/A speed=18.7x    frame=17802 fps=448 q=-0.0 size=N/A time=00:12:22.49 bitrate=N/A speed=18.7x    frame=18018 fps=448 q=-0.0 size=N/A time=00:12:31.50 bitrate=N/A speed=18.7x    frame=18273 fps=448 q=-0.0 size=N/A time=00:12:42.13 bitrate=N/A speed=18.7x    frame=18495 fps=448 q=-0.0 size=N/A time=00:12:51.39 bitrate=N/A speed=18.7x    frame=18734 fps=448 q=-0.0 size=N/A time=00:13:01.36 bitrate=N/A speed=18.7x    frame=18972 fps=448 q=-0.0 size=N/A time=00:13:11.29 bitrate=N/A speed=18.7x    frame=19229 fps=449 q=-0.0 size=N/A time=00:13:22.00 bitrate=N/A speed=18.7x    frame=19462 fps=449 q=-0.0 size=N/A time=00:13:31.72 bitrate=N/A speed=18.7x    frame=19711 fps=449 q=-0.0 size=N/A time=00:13:42.11 bitrate=N/A speed=18.7x    frame=19940 fps=449 q=-0.0 size=N/A time=00:13:51.66 bitrate=N/A speed=18.7x    frame=20210 fps=450 q=-0.0 size=N/A time=00:14:02.92 bitrate=N/A speed=18.8x    frame=20435 fps=450 q=-0.0 size=N/A time=00:14:12.30 bitrate=N/A speed=18.8x    frame=20663 fps=450 q=-0.0 size=N/A time=00:14:21.81 bitrate=N/A speed=18.8x    frame=20897 fps=450 q=-0.0 size=N/A time=00:14:31.57 bitrate=N/A speed=18.8x    frame=21178 fps=451 q=-0.0 size=N/A time=00:14:43.29 bitrate=N/A speed=18.8x    frame=21442 fps=452 q=-0.0 size=N/A time=00:14:54.31 bitrate=N/A speed=18.8x    frame=21682 fps=452 q=-0.0 size=N/A time=00:15:04.32 bitrate=N/A speed=18.8x    frame=21909 fps=452 q=-0.0 size=N/A time=00:15:13.78 bitrate=N/A speed=18.8x    frame=22105 fps=451 q=-0.0 size=N/A time=00:15:21.96 bitrate=N/A speed=18.8x    frame=22314 fps=450 q=-0.0 size=N/A time=00:15:30.67 bitrate=N/A speed=18.8x    frame=22544 fps=450 q=-0.0 size=N/A time=00:15:40.27 bitrate=N/A speed=18.8x    frame=22780 fps=450 q=-0.0 size=N/A time=00:15:50.11 bitrate=N/A speed=18.8x    frame=23027 fps=451 q=-0.0 size=N/A time=00:16:00.41 bitrate=N/A speed=18.8x    frame=23284 fps=451 q=-0.0 size=N/A time=00:16:11.13 bitrate=N/A speed=18.8x    frame=23543 fps=452 q=-0.0 size=N/A time=00:16:21.93 bitrate=N/A speed=18.8x    frame=23781 fps=452 q=-0.0 size=N/A time=00:16:31.86 bitrate=N/A speed=18.8x    frame=24023 fps=452 q=-0.0 size=N/A time=00:16:41.95 bitrate=N/A speed=18.8x    frame=24252 fps=452 q=-0.0 size=N/A time=00:16:51.51 bitrate=N/A speed=18.8x    frame=24499 fps=452 q=-0.0 size=N/A time=00:17:01.81 bitrate=N/A speed=18.9x    frame=24728 fps=452 q=-0.0 size=N/A time=00:17:11.36 bitrate=N/A speed=18.9x    frame=24951 fps=452 q=-0.0 size=N/A time=00:17:20.66 bitrate=N/A speed=18.8x    frame=25209 fps=452 q=-0.0 size=N/A time=00:17:31.42 bitrate=N/A speed=18.9x    frame=25439 fps=452 q=-0.0 size=N/A time=00:17:41.01 bitrate=N/A speed=18.9x    frame=25692 fps=453 q=-0.0 size=N/A time=00:17:51.57 bitrate=N/A speed=18.9x    frame=25949 fps=453 q=-0.0 size=N/A time=00:18:02.28 bitrate=N/A speed=18.9x    frame=26156 fps=453 q=-0.0 size=N/A time=00:18:10.92 bitrate=N/A speed=18.9x    frame=26368 fps=452 q=-0.0 size=N/A time=00:18:19.76 bitrate=N/A speed=18.9x    frame=26620 fps=453 q=-0.0 size=N/A time=00:18:30.27 bitrate=N/A speed=18.9x    frame=26864 fps=453 q=-0.0 size=N/A time=00:18:40.45 bitrate=N/A speed=18.9x    frame=27124 fps=453 q=-0.0 size=N/A time=00:18:51.29 bitrate=N/A speed=18.9x    frame=27358 fps=453 q=-0.0 size=N/A time=00:19:01.05 bitrate=N/A speed=18.9x    frame=27590 fps=453 q=-0.0 size=N/A time=00:19:10.73 bitrate=N/A speed=18.9x    frame=27821 fps=453 q=-0.0 size=N/A time=00:19:20.36 bitrate=N/A speed=18.9x    frame=28077 fps=453 q=-0.0 size=N/A time=00:19:31.04 bitrate=N/A speed=18.9x    frame=28324 fps=454 q=-0.0 size=N/A time=00:19:41.34 bitrate=N/A speed=18.9x    frame=28583 fps=454 q=-0.0 size=N/A time=00:19:52.14 bitrate=N/A speed=18.9x    frame=28851 fps=455 q=-0.0 size=N/A time=00:20:03.32 bitrate=N/A speed=  19x    frame=29127 fps=455 q=-0.0 size=N/A time=00:20:14.83 bitrate=N/A speed=  19x    frame=29406 fps=456 q=-0.0 size=N/A time=00:20:26.47 bitrate=N/A speed=  19x    frame=29658 fps=456 q=-0.0 size=N/A time=00:20:36.98 bitrate=N/A speed=  19x    frame=29933 fps=457 q=-0.0 size=N/A time=00:20:48.45 bitrate=N/A speed=  19x    frame=30169 fps=457 q=-0.0 size=N/A time=00:20:58.29 bitrate=N/A speed=19.1x    frame=30428 fps=457 q=-0.0 size=N/A time=00:21:09.10 bitrate=N/A speed=19.1x    frame=30701 fps=458 q=-0.0 size=N/A time=00:21:20.48 bitrate=N/A speed=19.1x    frame=30932 fps=458 q=-0.0 size=N/A time=00:21:30.12 bitrate=N/A speed=19.1x    frame=31189 fps=458 q=-0.0 size=N/A time=00:21:40.84 bitrate=N/A speed=19.1x    frame=31433 fps=458 q=-0.0 size=N/A time=00:21:51.01 bitrate=N/A speed=19.1x    frame=31660 fps=458 q=-0.0 size=N/A time=00:22:00.48 bitrate=N/A speed=19.1x    frame=31891 fps=458 q=-0.0 size=N/A time=00:22:10.12 bitrate=N/A speed=19.1x    frame=32166 fps=458 q=-0.0 size=N/A time=00:22:21.59 bitrate=N/A speed=19.1x    frame=32420 fps=459 q=-0.0 size=N/A time=00:22:32.18 bitrate=N/A speed=19.1x    frame=32662 fps=459 q=-0.0 size=N/A time=00:22:42.27 bitrate=N/A speed=19.1x    frame=32897 fps=459 q=-0.0 size=N/A time=00:22:52.07 bitrate=N/A speed=19.1x    frame=33110 fps=458 q=-0.0 size=N/A time=00:23:00.96 bitrate=N/A speed=19.1x    frame=33351 fps=458 q=-0.0 size=N/A time=00:23:11.01 bitrate=N/A speed=19.1x    frame=33564 fps=458 q=-0.0 size=N/A time=00:23:19.89 bitrate=N/A speed=19.1x    frame=33803 fps=458 q=-0.0 size=N/A time=00:23:29.86 bitrate=N/A speed=19.1x    frame=34013 fps=458 q=-0.0 size=N/A time=00:23:38.62 bitrate=N/A speed=19.1x    [Parsed_ssim_10 @ 00000218dc3a8400] SSIM Y:0.992629 (21.324924) U:0.994101 (22.292050) V:0.994324 (22.459291) All:0.993157 (21.647500)
[out#0/null @ 00000218d9d45380] video:14696KiB audio:268028KiB subtitle:0KiB other streams:0KiB global headers:0KiB muxing overhead: unknown
frame=34202 fps=457 q=-0.0 Lsize=N/A time=00:23:46.50 bitrate=N/A speed=19.1x    
